<?xml version="1.0" encoding="utf-8"?><!-- Uploaded to: SVG Repo, www.svgrepo.com, Generator: SVG Repo Mixer Tools -->
<svg fill="#000000" width="800px" height="800px" viewBox="0 0 24 24" id="link-alt" data-name="Flat Color" xmlns="http://www.w3.org/2000/svg" class="icon flat-color"><path id="primary" d="M20.67,3.33a4.53,4.53,0,0,0-6.41,0l-2.5,2.5A4.47,4.47,0,0,0,10.43,9a4.52,4.52,0,0,0,.35,1.75,4.54,4.54,0,0,0-4.95,1l-2.5,2.5A4.54,4.54,0,0,0,6.54,22a4.48,4.48,0,0,0,3.2-1.33l2.5-2.5A4.47,4.47,0,0,0,13.57,15a4.52,4.52,0,0,0-.35-1.75,4.58,4.58,0,0,0,1.74.35,4.49,4.49,0,0,0,3.21-1.33l2.5-2.5a4.53,4.53,0,0,0,0-6.41Z" style="fill: rgb(0, 0, 0);"></path><path id="secondary" d="M10,15a1,1,0,0,1-.71-.29,1,1,0,0,1,0-1.42l4-4a1,1,0,0,1,1.42,1.42l-4,4A1,1,0,0,1,10,15Z" style="fill: rgb(44, 169, 188);"></path></svg>